<?xml version="1.0" encoding="UTF-8"?>
<svg width="500" height="500" version="1.1" viewBox="0 0 132.29 132.29" xmlns="http://www.w3.org/2000/svg" xmlns:cc="http://creativecommons.org/ns#" xmlns:dc="http://purl.org/dc/elements/1.1/" xmlns:rdf="http://www.w3.org/1999/02/22-rdf-syntax-ns#">
<style>
#circles {
   fill: #222;
}
@media (prefers-color-scheme: dark) {
   #circles {
      fill: #bababa;
   }
}
</style>
<g stroke-linecap="round" stroke-linejoin="round">
<path transform="scale(.26458)" d="m398.79 234.98c-33.861 0.17656-107 3.9434-107 3.9434l-0.35743 11.072s55.001 7.5006 91.072 8.2148c36.071 0.71429 49.742 10.046 75 29.643 11.806 9.1598 24.183 17.914 34.479 24.959a250 250 0 0 0 8.0215-62.816 250 250 0 0 0-0.04102-4.5644c-22.113-3.2347-71.89-10.161-94.959-10.436-1.875-0.02232-3.9574-0.0274-6.2148-0.01562zm-232.3 7.5781c-24.812 0-53.602 1.8946-69.512 9.4707-31.82 15.152-40.405 25.759-68.689 27.779-10.406 0.74327-18.906 1.3774-26.262 1.9336a250 250 0 0 0 11.221 48.539c11.457-1.7536 27.802-6.964 50.766-19.24 23.885-12.769 26.398-29.718 62.764-37.799 36.365-8.0812 94.449-23.232 94.449-23.232l-9.0898-5.5566s-20.835-1.8945-45.646-1.8945zm127.24 17.027c-0.93763-0.01837-1.8715-0.01203-2.8027 0.01954-29.8 1.0102-51.012 0.50585-51.012 0.50585s-90.409 13.13-104.55 50.506c-14.142 37.376-27.274 68.69-40.406 71.721-8.0366 1.8546-32.579 6.0078-51.111 9.0762a250 250 0 0 0 64.574 64.625c21.696-15.012 52.54-38.668 56.742-54.508 6.566-24.749-7.5773-63.134 3.0293-81.316 10.607-18.183 51.013-35.861 73.236-40.912 22.223-5.0508-4.5449 8.082-4.5449 8.082s-33.84 32.325-33.84 58.084 16.162 63.639 15.152 87.883c-0.77259 18.542-16.828 47.558-24.375 60.25a250 250 0 0 0 56.182 6.3945 250 250 0 0 0 84.99-14.891c-4.1222-23.555-13.492-68.671-27.398-86.604-19.193-24.749-29.801-56.57-29.801-68.691s-8.5859-50.002-8.5859-50.002 53.539 24.749 69.701 51.518c16.162 26.769 12.627 57.074 37.881 104.55 4.0944 7.6974 7.6493 15.392 10.746 22.887a250 250 0 0 0 73.246-74.338c-7.5837-6.2493-14.406-12.511-19.342-18.25-21.718-25.254-46.973-68.185-67.176-75.256-19.572-6.8501-51.469-30.764-80.535-31.334z" fill="#6666ba" stroke-width="94.488" style="paint-order:markers stroke fill"/>
<path id="circles" transform="scale(.26458)" d="m250 90.111c-88.25 0-159.89 71.641-159.89 159.89 1.1e-5 88.25 71.641 159.89 159.89 159.89 87.946 0 159.31-71.174 159.8-159.01a4.7244 4.7244 0 0 0 0.08984-0.88672 4.7244 4.7244 0 0 0-0.08984-0.85547c-0.47411-87.846-71.846-159.04-159.8-159.04zm0 9.4473c83.143-8e-6 150.44 67.3 150.44 150.44 0 83.143-67.3 150.44-150.44 150.44-83.143 0-150.44-67.3-150.44-150.44 0-83.143 67.3-150.44 150.44-150.44zm0 23.209c-70.212 0-127.23 57.022-127.23 127.23 0 70.212 57.022 127.23 127.23 127.23 69.899 0 126.63-56.53 127.14-126.31a4.7244 4.7244 0 0 0 0.0879-0.91602 4.7244 4.7244 0 0 0-0.09571-0.9375c-0.5182-69.77-57.24-126.3-127.13-126.3zm0 9.4492c65.105-1e-5 117.78 52.68 117.78 117.79 0 65.105-52.674 117.78-117.78 117.78-65.105 0-117.79-52.674-117.79-117.78 0-65.105 52.68-117.79 117.79-117.79zm0 21.91c-52.892 0-95.875 42.983-95.875 95.875 0 52.892 42.983 95.869 95.875 95.869 52.588 0 95.292-42.508 95.781-94.982a4.7244 4.7244 0 0 0 0.08789-0.88672 4.7244 4.7244 0 0 0-0.0957-0.9375c-0.51732-52.45-43.203-94.938-95.773-94.938zm0 9.4492c47.785 0 86.42 38.641 86.42 86.426 0 47.785-38.635 86.42-86.42 86.42-47.785 0-86.426-38.635-86.426-86.42 0-47.785 38.641-86.426 86.426-86.426zm-0.1289 26.838a59.586 59.586 0 0 0-59.459 59.586 59.586 59.586 0 0 0 59.586 59.586 59.586 59.586 0 0 0 59.586-59.586 59.586 59.586 0 0 0-59.586-59.586 59.586 59.586 0 0 0-0.12695 0z" stroke-width="22.521" style="paint-order:markers stroke fill"/>
</g>
</svg>