<?xml version="1.0" encoding="UTF-8" standalone="no"?>
<svg
   xmlns:dc="http://purl.org/dc/elements/1.1/"
   xmlns:cc="http://creativecommons.org/ns#"
   xmlns:rdf="http://www.w3.org/1999/02/22-rdf-syntax-ns#"
   xmlns:svg="http://www.w3.org/2000/svg"
   xmlns="http://www.w3.org/2000/svg"
   xmlns:sodipodi="http://sodipodi.sourceforge.net/DTD/sodipodi-0.dtd"
   xmlns:inkscape="http://www.inkscape.org/namespaces/inkscape"
   sodipodi:docname="logo-light.svg"
   inkscape:version="1.0 (4035a4fb49, 2020-05-01)"
   id="svg8"
   version="1.1"
   viewBox="0 0 132.29166 132.29167"
   height="500"
   width="500">
  <defs
     id="defs2" />
  <sodipodi:namedview
     inkscape:window-maximized="0"
     inkscape:window-y="0"
     inkscape:window-x="1910"
     inkscape:window-height="2054"
     inkscape:window-width="1918"
     inkscape:lockguides="true"
     units="px"
     showgrid="false"
     inkscape:document-rotation="0"
     inkscape:current-layer="layer1"
     inkscape:document-units="px"
     inkscape:cy="262.41867"
     inkscape:cx="264.73013"
     inkscape:zoom="1.979899"
     inkscape:pageshadow="2"
     inkscape:pageopacity="0.0"
     borderopacity="1.0"
     bordercolor="#666666"
     pagecolor="#ffffff"
     id="base">
    <sodipodi:guide
       inkscape:locked="true"
       id="guide833"
       orientation="0,500"
       position="0,132.29166" />
    <sodipodi:guide
       inkscape:locked="true"
       id="guide835"
       orientation="500,0"
       position="132.29166,132.29166" />
    <sodipodi:guide
       inkscape:locked="true"
       id="guide837"
       orientation="0,-500"
       position="132.29166,0" />
    <sodipodi:guide
       inkscape:locked="true"
       id="guide839"
       orientation="-500,0"
       position="0,0" />
  </sodipodi:namedview>
  <metadata
     id="metadata5">
    <rdf:RDF>
      <cc:Work
         rdf:about="">
        <dc:format>image/svg+xml</dc:format>
        <dc:type
           rdf:resource="http://purl.org/dc/dcmitype/StillImage" />
        <dc:title></dc:title>
      </cc:Work>
    </rdf:RDF>
  </metadata>
  <g
     id="layer1"
     inkscape:groupmode="layer"
     inkscape:label="Layer 1">
    <path
       transform="scale(0.26458333)"
       d="M 398.78516 234.98438 C 364.92372 235.16094 291.78516 238.92773 291.78516 238.92773 L 291.42773 250 C 291.42773 250 346.42859 257.50055 382.5 258.21484 C 418.57143 258.92913 432.24206 268.26071 457.5 287.85742 C 469.30602 297.01727 481.68339 305.77164 491.97852 312.81641 A 249.99998 249.99998 0 0 0 500 250 A 249.99998 249.99998 0 0 0 499.95898 245.43555 C 477.84568 242.20081 428.06897 235.27462 405 235 C 403.125 234.97768 401.04259 234.9726 398.78516 234.98438 z M 166.48633 242.5625 C 141.67446 242.5625 112.88451 244.45706 96.974609 252.0332 C 65.154804 267.1855 56.569426 277.79219 28.285156 279.8125 C 17.879326 280.55577 9.3788591 281.18991 2.0234375 281.74609 A 249.99998 249.99998 0 0 0 13.244141 330.28516 C 24.701128 328.5316 41.04624 323.32114 64.009766 311.04492 C 87.894479 298.27624 90.407946 281.32731 126.77344 273.24609 C 163.13893 265.16487 221.22266 250.01367 221.22266 250.01367 L 212.13281 244.45703 C 212.13281 244.45703 191.2982 242.5625 166.48633 242.5625 z M 293.72656 259.58984 C 292.78893 259.57147 291.85506 259.57781 290.92383 259.60938 C 261.12433 260.61953 239.91211 260.11523 239.91211 260.11523 C 239.91211 260.11523 149.50347 273.24544 135.36133 310.62109 C 121.2192 347.99674 108.08706 379.31133 94.955078 382.3418 C 86.918524 384.19636 62.376147 388.34959 43.84375 391.41797 A 249.99998 249.99998 0 0 0 108.41797 456.04297 C 130.11423 441.03116 160.95762 417.37547 165.16016 401.53516 C 171.72614 376.78641 157.58286 338.40149 168.18945 320.21875 C 178.79605 302.036 219.20242 284.3574 241.42578 279.30664 C 263.64913 274.25588 236.88086 287.38867 236.88086 287.38867 C 236.88086 287.38867 203.04102 319.71377 203.04102 345.47266 C 203.04102 371.23155 219.20351 409.1118 218.19336 433.35547 C 217.42077 451.89754 201.36542 480.91393 193.81836 493.60547 A 249.99998 249.99998 0 0 0 250 500 A 249.99998 249.99998 0 0 0 334.99023 485.10938 C 330.86808 461.5543 321.49858 416.43827 307.5918 398.50586 C 288.3989 373.75711 277.79102 341.93628 277.79102 329.81445 C 277.79102 317.69262 269.20508 279.8125 269.20508 279.8125 C 269.20508 279.8125 322.74381 304.56103 338.90625 331.33008 C 355.06869 358.09912 351.5333 388.40368 376.78711 435.88086 C 380.88146 443.57824 384.43637 451.27249 387.5332 458.76758 A 249.99998 249.99998 0 0 0 460.7793 384.42969 C 453.1956 378.18037 446.37339 371.91908 441.4375 366.17969 C 419.71924 340.92587 394.46477 297.9949 374.26172 290.92383 C 354.69001 284.07374 322.79313 260.15941 293.72656 259.58984 z "
       style="fill:#6666ba;stroke-width:94.4882;stroke-linecap:round;stroke-linejoin:round;paint-order:markers stroke fill;fill-opacity:1"
       id="path841" />
    <path
       transform="scale(0.26458333)"
       d="M 250.00195 90.111328 C 161.75229 90.111328 90.111328 161.75229 90.111328 250.00195 C 90.111339 338.25161 161.7523 409.89453 250.00195 409.89453 C 337.94825 409.89453 409.31448 338.72052 409.80469 250.88867 A 4.7244095 4.7244095 0 0 0 409.89453 250.00195 A 4.7244095 4.7244095 0 0 0 409.80469 249.14648 C 409.33058 161.30083 337.95827 90.111321 250.00195 90.111328 z M 250.00195 99.558594 C 333.1451 99.558586 400.44531 166.8588 400.44531 250.00195 C 400.44531 333.14509 333.14509 400.44531 250.00195 400.44531 C 166.85882 400.44531 99.558605 333.14509 99.558594 250.00195 C 99.558594 166.85881 166.85881 99.558594 250.00195 99.558594 z M 250.00195 122.76758 C 179.79 122.76758 122.76758 179.79 122.76758 250.00195 C 122.76758 320.21391 179.79 377.22852 250.00195 377.22852 C 319.9005 377.22852 376.63473 320.69839 377.14062 250.91797 A 4.7244095 4.7244095 0 0 0 377.22852 250.00195 A 4.7244095 4.7244095 0 0 0 377.13281 249.06445 C 376.61461 179.2946 319.89283 122.76757 250.00195 122.76758 z M 250.00195 132.2168 C 315.10739 132.21679 367.78125 184.89652 367.78125 250.00195 C 367.78125 315.10739 315.10739 367.78125 250.00195 367.78125 C 184.89652 367.78125 132.2168 315.10739 132.2168 250.00195 C 132.2168 184.89652 184.89652 132.2168 250.00195 132.2168 z M 250.00195 154.12695 C 197.11019 154.12695 154.12695 197.11019 154.12695 250.00195 C 154.12695 302.89372 197.11019 345.87109 250.00195 345.87109 C 302.59036 345.87109 345.2941 303.36293 345.7832 250.88867 A 4.7244095 4.7244095 0 0 0 345.87109 250.00195 A 4.7244095 4.7244095 0 0 0 345.77539 249.06445 C 345.25807 196.61451 302.57271 154.12695 250.00195 154.12695 z M 250.00195 163.57617 C 297.7872 163.57617 336.42187 202.21671 336.42188 250.00195 C 336.42188 297.7872 297.7872 336.42187 250.00195 336.42188 C 202.21671 336.42188 163.57617 297.7872 163.57617 250.00195 C 163.57617 202.21671 202.21671 163.57617 250.00195 163.57617 z M 249.87305 190.41406 A 59.586233 59.586233 0 0 0 190.41406 250 A 59.586233 59.586233 0 0 0 250 309.58594 A 59.586233 59.586233 0 0 0 309.58594 250 A 59.586233 59.586233 0 0 0 250 190.41406 A 59.586233 59.586233 0 0 0 249.87305 190.41406 z "
       style="fill:#222222;fill-opacity:1;stroke-width:22.5208;stroke-linecap:round;stroke-linejoin:round;paint-order:markers stroke fill"
       id="path843" />
  </g>
</svg>
